<svg width="23" height="23" viewBox="0 0 23 23" fill="none" xmlns="http://www.w3.org/2000/svg">
<path fill-rule="evenodd" clip-rule="evenodd" d="M0.541682 12.5039C0.541682 13.8067 1.55697 14.891 2.84004 15.121L2.9764 15.1456C3.22447 15.19 3.47747 15.236 3.74854 15.2803V10.498C3.74854 8.08297 5.5984 6.24461 7.7374 5.86018L7.85568 5.83883C9.21597 5.5924 10.7718 5.31311 14.1314 5.31311C15.237 5.31311 16.2638 5.3509 17.197 5.41004V4.92868C17.197 3.79511 16.4232 2.81761 15.3028 2.6484C13.1726 2.3362 11.0222 2.18245 8.86933 2.1884C5.69204 2.1884 4.25947 2.44633 2.9764 2.67797L2.84004 2.70261C1.55697 2.93261 0.540039 4.0169 0.540039 5.31968L0.541682 12.5039ZM8.10047 20.3009C6.81904 20.0709 5.80211 18.9866 5.80211 17.6838V13.166H22.4574V17.6838C22.4574 18.9866 21.4421 20.0693 20.159 20.3009L20.0227 20.3255C18.7413 20.5555 17.307 20.8151 14.1298 20.8151C10.9525 20.8151 9.5199 20.5555 8.23847 20.3255L8.10047 20.3009ZM22.459 11.1108V10.1053C22.459 8.97176 21.6836 7.99426 20.5648 7.82668C18.4341 7.51441 16.2832 7.36065 14.1298 7.36668C10.9525 7.36668 9.5199 7.62297 8.23847 7.85461L8.10047 7.87926C6.81904 8.10926 5.80211 9.19354 5.80211 10.4963V11.1108H22.459ZM15.2617 17.1696C15.2617 16.6012 15.7217 16.1428 16.2885 16.1428H19.1093C19.3816 16.1428 19.6427 16.251 19.8353 16.4436C20.0279 16.6361 20.136 16.8973 20.136 17.1696C20.136 17.4419 20.0279 17.7031 19.8353 17.8957C19.6427 18.0882 19.3816 18.1964 19.1093 18.1964H16.2885C16.0161 18.1964 15.755 18.0882 15.5624 17.8957C15.3699 17.7031 15.2617 17.4419 15.2617 17.1696Z" fill="#4AC1A7"/>
</svg>
