<svg width="58" height="58" viewBox="0 0 58 58" fill="none" xmlns="http://www.w3.org/2000/svg">
<path fill-rule="evenodd" clip-rule="evenodd" d="M1.34392 30.9951C1.34392 34.2245 3.86068 36.9123 7.04125 37.4824L7.37926 37.5435C7.9942 37.6535 8.62136 37.7675 9.29331 37.8775V26.0226C9.29331 20.0361 13.8789 15.4791 19.1812 14.5261L19.4744 14.4732C22.8464 13.8623 26.703 13.17 35.0311 13.17C37.7718 13.17 40.3171 13.2637 42.6303 13.4103V12.2171C42.6303 9.40708 40.7121 6.98398 37.9347 6.56452C32.6544 5.79063 27.3239 5.40949 21.9871 5.42424C14.111 5.42424 10.5598 6.06361 7.37926 6.63783L7.04125 6.69891C3.86068 7.26905 1.33984 9.95686 1.33984 13.1863L1.34392 30.9951ZM20.0812 50.3228C16.9047 49.7527 14.3839 47.0649 14.3839 43.8354V32.6362H55.6702V43.8354C55.6702 47.0649 53.1534 49.7486 49.9729 50.3228L49.6348 50.3839C46.4583 50.9541 42.9031 51.5975 35.027 51.5975C27.1509 51.5975 23.5998 50.9541 20.4233 50.3839L20.0812 50.3228ZM55.6743 27.5416V25.0493C55.6743 22.2393 53.7521 19.8162 50.9787 19.4008C45.697 18.6267 40.3651 18.2456 35.027 18.2606C27.1509 18.2606 23.5998 18.8959 20.4233 19.4701L20.0812 19.5312C16.9047 20.1013 14.3839 22.7891 14.3839 26.0185V27.5416H55.6743ZM37.8329 42.5608C37.8329 41.1517 38.9732 40.0155 40.3782 40.0155H47.3706C48.0456 40.0155 48.693 40.2837 49.1703 40.761C49.6477 41.2383 49.9158 41.8857 49.9158 42.5608C49.9158 43.2358 49.6477 43.8832 49.1703 44.3606C48.693 44.8379 48.0456 45.106 47.3706 45.106H40.3782C39.7032 45.106 39.0558 44.8379 38.5784 44.3606C38.1011 43.8832 37.8329 43.2358 37.8329 42.5608Z" fill="#4AC1A7"/>
</svg>
