<svg width="55" height="55" viewBox="0 0 55 55" fill="none" xmlns="http://www.w3.org/2000/svg">
<path d="M10.2255 13.6332C10.2255 12.2772 10.7641 10.9768 11.7229 10.018C12.6817 9.05916 13.9822 8.52051 15.3381 8.52051H42.6058C43.9617 8.52051 45.2621 9.05916 46.221 10.018C47.1798 10.9768 47.7184 12.2772 47.7184 13.6332V30.6754C47.7184 32.0314 47.1798 33.3318 46.221 34.2906C45.2621 35.2495 43.9617 35.7881 42.6058 35.7881H28.9719V22.1543C28.9719 19.8944 28.0742 17.727 26.4762 16.129C24.8781 14.5309 22.7108 13.6332 20.4508 13.6332H11.9297C11.3389 13.6332 10.7708 13.7048 10.2255 13.8479V13.6332ZM49.4226 42.605H28.9719V39.1966H49.4226C49.8746 39.1966 50.3081 39.3761 50.6277 39.6957C50.9473 40.0153 51.1269 40.4488 51.1269 40.9008C51.1269 41.3528 50.9473 41.7863 50.6277 42.1059C50.3081 42.4255 49.8746 42.605 49.4226 42.605ZM10.2255 17.0416C8.8695 17.0416 7.56907 17.5803 6.61026 18.5391C5.65145 19.4979 5.11279 20.7983 5.11279 22.1543V42.605C5.11279 43.961 5.65145 45.2614 6.61026 46.2202C7.56907 47.179 8.8695 47.7177 10.2255 47.7177H20.4508C21.8068 47.7177 23.1072 47.179 24.066 46.2202C25.0248 45.2614 25.5635 43.961 25.5635 42.605V22.1543C25.5635 20.7983 25.0248 19.4979 24.066 18.5391C23.1072 17.5803 21.8068 17.0416 20.4508 17.0416H10.2255ZM15.3381 42.605C14.8862 42.605 14.4527 42.4255 14.1331 42.1059C13.8135 41.7863 13.6339 41.3528 13.6339 40.9008C13.6339 40.4488 13.8135 40.0153 14.1331 39.6957C14.4527 39.3761 14.8862 39.1966 15.3381 39.1966C15.7901 39.1966 16.2236 39.3761 16.5432 39.6957C16.8628 40.0153 17.0424 40.4488 17.0424 40.9008C17.0424 41.3528 16.8628 41.7863 16.5432 42.1059C16.2236 42.4255 15.7901 42.605 15.3381 42.605Z" fill="black"/>
</svg>
