<svg width="50" height="50" viewBox="0 0 50 50" fill="none" xmlns="http://www.w3.org/2000/svg">
<g clip-path="url(#clip0_1804_2028)">
<path d="M11.1773 46.6069H38.4228C41.3691 46.6069 43.091 44.9461 43.091 42.021V23.0762L45.7673 25.525C46.2038 25.9402 46.681 26.2306 47.2617 26.2306C48.2365 26.2306 49.0253 25.6286 49.0253 24.6326C49.0253 24.0102 48.7969 23.6163 48.4029 23.263L41.2027 16.6852V4.4652C41.2027 3.55244 40.6219 2.97168 39.7091 2.97168H36.9912C36.0988 2.97168 35.4756 3.55244 35.4756 4.4652V11.4786L27.2802 4.00838C26.5543 3.3444 25.6823 2.97168 24.7899 2.97168C23.8975 2.97168 23.0263 3.3444 22.3004 4.00838L1.17682 23.2639C0.803216 23.6172 0.554443 24.0111 0.554443 24.6335C0.554443 25.6295 1.34237 26.2315 2.31798 26.2315C2.92 26.2315 3.39718 25.9411 3.81239 25.5259L6.48869 23.0984V42.0219C6.48869 44.947 8.21151 46.6078 11.1782 46.6078M30.7648 29.4885C30.7648 28.5342 30.1425 27.9322 29.1881 27.9322H20.389C19.4346 27.9322 18.7919 28.5342 18.7919 29.4885V43.2649H11.882C10.554 43.2649 9.82808 42.5389 9.82808 41.1897V20.0476L24.063 7.07864C24.2702 6.87148 24.519 6.74665 24.789 6.74665C25.059 6.74665 25.3078 6.85023 25.5362 7.07864L39.749 20.0476V41.1906C39.749 42.5398 39.023 43.2658 37.7163 43.2658H30.7648V29.4885Z" fill="black"/>
</g>
<defs>
<clipPath id="clip0_1804_2028">
<rect width="49.5775" height="49.5775" fill="white"/>
</clipPath>
</defs>
</svg>
