<svg width="53" height="53" viewBox="0 0 53 53" fill="none" xmlns="http://www.w3.org/2000/svg">
<circle cx="26.5" cy="26.5" r="26.5" fill="#F5F7F9" fill-opacity="0.3"/>
<path d="M38 26.5C38 29.55 36.7884 32.4751 34.6317 34.6317C32.4751 36.7884 29.55 38 26.5 38C23.45 38 20.5249 36.7884 18.3683 34.6317C16.2116 32.4751 15 29.55 15 26.5C15 23.45 16.2116 20.5249 18.3683 18.3683C20.5249 16.2116 23.45 15 26.5 15C29.55 15 32.4751 16.2116 34.6317 18.3683C36.7884 20.5249 38 23.45 38 26.5ZM25.35 27.65V31.1C25.35 31.405 25.4712 31.6975 25.6868 31.9132C25.9025 32.1288 26.195 32.25 26.5 32.25C26.805 32.25 27.0975 32.1288 27.3132 31.9132C27.5288 31.6975 27.65 31.405 27.65 31.1V27.65C27.65 27.345 27.5288 27.0525 27.3132 26.8368C27.0975 26.6212 26.805 26.5 26.5 26.5C26.195 26.5 25.9025 26.6212 25.6868 26.8368C25.4712 27.0525 25.35 27.345 25.35 27.65ZM26.5 21.325C26.0425 21.325 25.6037 21.5067 25.2802 21.8302C24.9567 22.1537 24.775 22.5925 24.775 23.05C24.775 23.5075 24.9567 23.9463 25.2802 24.2698C25.6037 24.5933 26.0425 24.775 26.5 24.775C26.9575 24.775 27.3963 24.5933 27.7198 24.2698C28.0433 23.9463 28.225 23.5075 28.225 23.05C28.225 22.5925 28.0433 22.1537 27.7198 21.8302C27.3963 21.5067 26.9575 21.325 26.5 21.325Z" fill="white"/>
</svg>
