<svg width="91" height="59" viewBox="0 0 91 59" fill="none" xmlns="http://www.w3.org/2000/svg">
<path d="M43.6694 58.4819C22.4146 50.8607 14.2506 32.7057 19.3845 4.4828C30.9455 0.0531917 43.5374 0 43.6694 0C43.7997 0 56.4318 0.0733679 67.9543 4.4828C73.0883 32.7057 64.9242 50.8607 43.6694 58.4819Z" fill="#6DCEB7"/>
<path d="M67.9548 4.4828C56.4323 0.0733678 43.8002 0 43.6699 0V58.4819C64.9247 50.8607 73.0888 32.7057 67.9548 4.4828Z" fill="#87DAC7"/>
<path d="M5.6281 38.8423V24.0907H0.296216V20.0918H15.6994V24.0907H10.3676V38.8423H5.6281ZM17.7741 38.8423V20.0918H31.6963V23.9426H22.5136V27.4972H30.4818V31.348H22.5136V34.9915H31.6963V38.8423H17.7741ZM42.7393 23.913H33.6455V20.0918H48.6636V23.4983L39.5994 34.9915V35.0507H49.1376V38.8719H33.1716V35.7616L42.7393 23.9723V23.913ZM51.2002 29.4522C51.2002 27.0628 51.4668 25.167 52 23.7649C52.5529 22.3628 53.491 21.3557 54.8141 20.7435C56.1569 20.1313 58.0231 19.8252 60.4125 19.8252C62.2096 19.8252 63.7005 19.9931 64.8854 20.3288C66.0703 20.6645 67.0083 21.2076 67.6995 21.958C68.3906 22.7084 68.8744 23.7057 69.1509 24.9498C69.4471 26.1741 69.5952 27.675 69.5952 29.4522C69.5952 31.269 69.4471 32.7995 69.1509 34.0436C68.8547 35.268 68.361 36.2553 67.6698 37.0058C66.9787 37.7562 66.0209 38.2992 64.7965 38.6349V38.783C65.389 39.4347 65.9222 40.1061 66.3961 40.7973C66.8898 41.4885 67.3144 42.15 67.6698 42.782V42.8708H62.2787L60.1756 39.1089C57.8453 39.0891 56.0285 38.7732 54.7252 38.161C53.4218 37.5291 52.5036 36.5121 51.9704 35.11C51.4569 33.7079 51.2002 31.822 51.2002 29.4522ZM60.4125 34.9619C61.6764 34.9619 62.6243 34.8039 63.2562 34.4879C63.8881 34.172 64.3127 33.619 64.5299 32.8291C64.7472 32.0195 64.8558 30.8938 64.8558 29.4522C64.8558 28.0304 64.7472 26.9245 64.5299 26.1346C64.3127 25.3447 63.8881 24.7918 63.2562 24.4758C62.6243 24.1401 61.6764 23.9723 60.4125 23.9723C59.1684 23.9723 58.2205 24.1401 57.5689 24.4758C56.9369 24.7918 56.5025 25.3447 56.2655 26.1346C56.0483 26.9245 55.9397 28.0304 55.9397 29.4522C55.9397 30.8938 56.0483 32.0195 56.2655 32.8291C56.5025 33.619 56.9369 34.172 57.5689 34.4879C58.2205 34.8039 59.1684 34.9619 60.4125 34.9619ZM88.7951 20.0918V31.1407C88.7951 33.076 88.5581 34.6262 88.0842 35.7913C87.63 36.9564 86.8302 37.8055 85.6848 38.3387C84.5395 38.8522 82.9202 39.1089 80.8269 39.1089C78.6547 39.1089 76.9662 38.8522 75.7616 38.3387C74.5768 37.8055 73.7473 36.9564 73.2734 35.7913C72.7995 34.6262 72.5625 33.076 72.5625 31.1407V20.0918H77.3019V31.0518C77.3019 32.0589 77.4007 32.8489 77.5982 33.4215C77.7956 33.9942 78.1511 34.3991 78.6645 34.636C79.178 34.8533 79.8988 34.9619 80.8269 34.9619C81.6958 34.9619 82.3574 34.8533 82.8116 34.636C83.2855 34.3991 83.6113 33.9942 83.7891 33.4215C83.9668 32.8489 84.0557 32.0589 84.0557 31.0518V20.0918H88.7951Z" fill="white"/>
</svg>
