<svg width="55" height="55" viewBox="0 0 55 55" fill="none" xmlns="http://www.w3.org/2000/svg">
<g clip-path="url(#clip0_1804_1967)">
<path d="M27.2676 0C42.3275 0 54.5352 12.2077 54.5352 27.2676C54.5352 42.3275 42.3275 54.5352 27.2676 54.5352C12.2077 54.5352 0 42.3275 0 27.2676C0 12.2077 12.2077 0 27.2676 0ZM24.7317 15.218C24.2274 15.2195 23.7441 15.4205 23.3875 15.7771C23.0309 16.1337 22.8299 16.617 22.8284 17.1213V32.3394C22.8284 33.3919 23.6792 34.2427 24.7317 34.2427H39.9498C40.2056 34.2523 40.4607 34.2103 40.6999 34.1191C40.9391 34.0279 41.1575 33.8894 41.3419 33.7118C41.5263 33.5342 41.673 33.3213 41.7732 33.0857C41.8734 32.8501 41.9251 32.5967 41.9251 32.3407C41.9251 32.0847 41.8734 31.8314 41.7732 31.5958C41.673 31.3602 41.5263 31.1473 41.3419 30.9697C41.1575 30.7921 40.9391 30.6536 40.6999 30.5624C40.4607 30.4712 40.2056 30.4291 39.9498 30.4388H26.6323V17.1213C26.6308 16.6175 26.4302 16.1346 26.0742 15.7781C25.7182 15.4215 25.2356 15.2202 24.7317 15.218Z" fill="#43C19F"/>
</g>
<defs>
<clipPath id="clip0_1804_1967">
<rect width="54.5352" height="54.5352" fill="white"/>
</clipPath>
</defs>
</svg>
